<?xml version="1.0" standalone="no"?>
<!DOCTYPE svg PUBLIC "-//W3C//DTD SVG 20010904//EN"
 "http://www.w3.org/TR/2001/REC-SVG-20010904/DTD/svg10.dtd">
<svg version="1.0" xmlns="http://www.w3.org/2000/svg"
 width="1266.000000pt" height="1266.000000pt" viewBox="0 0 1266.000000 1266.000000"
 preserveAspectRatio="xMidYMid meet">
<metadata>
Created by potrace 1.14, written by Peter Selinger 2001-2017
</metadata>
<g transform="translate(0.000000,1266.000000) scale(0.100000,-0.100000)"
fill="#000000" stroke="none">
<path d="M5935 12524 c-22 -2 -98 -9 -170 -15 -737 -61 -1480 -270 -2165 -610
-366 -181 -667 -366 -985 -606 -1237 -932 -2091 -2314 -2370 -3833 -76 -415
-100 -691 -99 -1155 0 -466 27 -763 105 -1165 256 -1313 913 -2478 1914 -3393
306 -280 704 -570 1076 -785 1299 -749 2835 -1004 4324 -716 986 191 1952 652
2736 1307 871 728 1519 1674 1890 2757 146 424 247 885 299 1360 43 399 41
941 -6 1360 -165 1496 -892 2906 -2019 3918 -435 392 -854 675 -1385 941 -684
341 -1325 526 -2140 617 -105 12 -259 17 -555 19 -225 1 -428 1 -450 -1z
m1165 -3537 c465 -69 747 -181 959 -382 204 -194 301 -443 301 -775 0 -426
-159 -720 -495 -918 -201 -118 -573 -214 -920 -237 -186 -12 -215 -16 -215
-31 0 -11 17 -14 78 -14 192 0 519 -35 699 -76 662 -148 963 -501 963 -1132 0
-375 -114 -675 -344 -905 -220 -220 -513 -352 -936 -424 -96 -16 -222 -17
-1477 -20 l-1373 -4 0 129 0 129 128 6 c232 12 385 52 445 115 41 44 68 106
83 195 12 70 14 360 12 1937 -3 1740 -4 1859 -21 1915 -52 178 -168 234 -524
252 l-123 6 0 129 0 129 1323 -4 c1177 -3 1335 -5 1437 -20z m-3627 -4205
l247 -247 -238 -238 -237 -237 -250 250 -250 250 235 235 c129 129 237 235
240 235 3 0 116 -111 253 -248z"/>
<path d="M5770 7754 l0 -947 378 6 c389 6 502 15 674 56 236 56 424 161 534
299 140 176 203 431 176 711 -46 468 -315 734 -817 806 -74 11 -208 15 -522
15 l-423 0 0 -946z"/>
<path d="M5772 5668 c4 -771 4 -784 26 -861 79 -281 285 -425 658 -459 103 -9
163 -9 262 0 502 45 804 301 903 763 29 136 32 450 5 598 -57 318 -197 493
-479 599 -232 87 -533 124 -1125 137 l-253 5 3 -782z"/>
</g>
</svg>
